# Blender 4.5.1 LTS
# www.blender.org
mtllib objects.mtl
o RobotAgent
v 1.000000 -1.000000 0.998380
v 1.000000 -1.000000 0.001897
v -1.000000 -1.000000 0.998380
v -1.000000 -1.000000 0.001897
v 0.000633 1.000000 0.998380
v 0.000633 1.000000 0.001897
v 1.004087 0.004233 0.998380
v -1.007688 0.000000 0.998380
v -1.007688 0.000000 0.001897
v 1.004087 0.004233 0.001897
vn -0.0000 -0.0000 1.0000
vn -0.7042 0.7100 -0.0000
vn -0.0000 -0.0000 -1.0000
vn 0.7044 0.7098 -0.0000
vn -0.0000 -1.0000 -0.0000
vn -1.0000 -0.0077 -0.0000
vn 1.0000 -0.0041 -0.0000
vt 0.625000 0.500000
vt 0.625000 1.000000
vt 0.625000 0.875000
vt 0.375000 1.000000
vt 0.375000 0.875000
vt 0.375000 0.750000
vt 0.625000 0.750000
vt 0.375000 0.500000
s 0
usemtl Material
f 1/1/1 5/2/1 8/3/1
f 8/3/2 6/4/2 9/5/2
f 10/6/3 4/6/3 9/5/3
f 10/6/4 5/2/4 7/7/4
f 1/1/5 4/6/5 2/8/5
f 8/3/1 3/7/1 1/1/1
f 1/1/1 7/7/1 5/2/1
f 9/5/6 4/6/6 3/7/6
f 8/3/2 5/2/2 6/4/2
f 9/5/6 3/7/6 8/3/6
f 9/5/3 6/4/3 10/6/3
f 10/6/3 2/8/3 4/6/3
f 7/7/7 1/1/7 2/8/7
f 10/6/4 6/4/4 5/2/4
f 7/7/7 2/8/7 10/6/7
f 1/1/5 3/7/5 4/6/5
